#!OML:ASF F:\VICON\USERDATA\INSTALL\rory3\rory3.ASF
:FULLY-SPECIFIED
:DEGREES
1172
root -1.36655 7.98999 0.730509 6.74002 -0.697078 -0.758757
lowerback 19.909 1.25944 -2.76204
upperback 3.49731 1.27844 2.5171
thorax -7.46173 0.709737 3.97476
lowerneck -20.1465 -0.747119 -9.58484
upperneck 33.0757 2.01545 1.45965
head 14.7816 -0.150128 2.63089
rclavicle 9.14409e-015 2.90226e-014
rhumerus -28.8935 -15.6886 -61.6813
rradius 39.577
rwrist 12.9735
rhand -23.6531 4.8452
rfingers 7.12502
rthumb 2.81243 -25.116
lclavicle 9.14409e-015 2.90226e-014
lhumerus -32.8588 23.1177 64.2858
lradius 40.702
lwrist 7.14358
lhand -21.7196 22.3423
lfingers 7.12502
lthumb 4.67952 52.2706
rfemur -104.555 -57.782 36.3338
rtibia 153.845
rfoot -18.5823 31.9959
rtoes -7.90841
lfemur -102.882 64.3132 -32.7304
ltibia 151.703
lfoot -33.1325 -39.5938
ltoes -18.4105
1173
root -1.3621 7.93609 0.736043 6.57493 -0.710389 -0.848014
lowerback 19.9107 1.23026 -2.64937
upperback 3.53946 1.2658 2.54681
thorax -7.41403 0.699661 3.94548
lowerneck -20.1842 -0.783175 -9.6351
upperneck 33.1428 1.97022 1.50849
head 14.8231 -0.171996 2.65379
rclavicle -2.98177e-015 2.38542e-015
rhumerus -28.9108 -15.5909 -61.737
rradius 39.5169
rwrist 13.0668
rhand -23.5502 5.03009
rfingers 7.12502
rthumb 2.91179 -24.9298
lclavicle -2.98177e-015 2.38542e-015
lhumerus -32.8482 23.2476 64.3127
lradius 40.534
lwrist 7.26805
lhand -21.9244 20.4908
lfingers 7.12502
lthumb 4.48182 50.4234
rfemur -105.046 -58.4289 36.7225
rtibia 154.25
rfoot -18.4646 32.077
rtoes -7.61514
lfemur -103.581 65.4243 -33.1572
ltibia 152.15
lfoot -33.9011 -39.7681
ltoes -18.073
1174
root -1.3591 7.88767 0.736619 6.49796 -0.739971 -0.862102
lowerback 19.8486 1.21182 -2.66634
upperback 3.59632 1.23973 2.56002
thorax -7.31708 0.684972 3.9762
lowerneck -20.1784 -0.783789 -9.66073
upperneck 33.0418 1.96655 1.5277
head 14.7748 -0.169936 2.66286
rclavicle 1.98785e-015 1.63003e-014
rhumerus -28.8568 -15.5234 -61.8328
rradius 39.4705
rwrist 13.1652
rhand -23.5431 5.16224
rfingers 7.12502
rthumb 2.91857 -24.7975
lclavicle 1.98785e-015 1.63003e-014
lhumerus -32.7238 23.4539 64.3594
lradius 40.4196
lwrist 7.27646
lhand -22.0209 19.9892
lfingers 7.12502
lthumb 4.38856 49.9237
rfemur -105.938 -58.8725 37.4163
rtibia 154.612
rfoot -18.3832 31.8966
rtoes -7.37002
lfemur -104.446 65.8789 -33.6164
ltibia 152.539
lfoot -33.6698 -40.0197
ltoes -17.7191
1175
root -1.35583 7.84065 0.737431 6.44945 -0.848778 -0.921136
lowerback 19.8592 1.22954 -2.6195
upperback 3.57022 1.27226 2.5577
thorax -7.35317 0.70049 3.93836
lowerneck -20.088 -0.795116 -9.69259
upperneck 32.9553 1.93203 1.5678
head 14.716 -0.178683 2.6756
rclavicle 1.19271e-015 2.06736e-014
rhumerus -28.997 -15.5364 -61.8739
rradius 39.4576
rwrist 13.1397
rhand -23.6176 5.12782
rfingers 7.12502
rthumb 2.84662 -24.8329
lclavicle 1.19271e-015 2.06736e-014
lhumerus -32.7105 23.5302 64.3563
lradius 40.226
lwrist 7.18164
lhand -22.0763 19.7234
lfingers 7.12502
lthumb 4.33506 49.659
rfemur -106.796 -58.7671 38.0042
rtibia 154.941
rfoot -18.1591 31.4832
rtoes -7.5432
lfemur -105.509 66.447 -34.1698
ltibia 152.943
lfoot -33.7506 -39.9717
ltoes -19.5226
1176
root -1.35183 7.7968 0.743295 6.44685 -0.918688 -0.873654
lowerback 19.6923 1.23528 -2.64689
upperback 3.6095 1.27368 2.5232
thorax -7.22085 0.698496 3.91601
lowerneck -20.2026 -0.821925 -9.77709
upperneck 32.9907 1.89311 1.69687
head 14.7572 -0.189679 2.73899
rclavicle 4.96962e-015 -7.55382e-015
rhumerus -28.9091 -15.6241 -61.9863
rradius 39.3315
rwrist 13.1839
rhand -23.8248 5.24423
rfingers 7.12502
rthumb 2.64654 -24.7191
lclavicle 4.96962e-015 -7.55382e-015
lhumerus -32.5904 23.4926 64.4462
lradius 40.1173
lwrist 7.14395
lhand -22.0959 20.1662
lfingers 7.12502
lthumb 4.31615 50.1022
rfemur -107.64 -59.0094 38.4571
rtibia 155.275
rfoot -17.8891 31.3945
rtoes -7.46482
lfemur -106.424 67.0171 -34.8187
ltibia 153.28
lfoot -33.5851 -40.2558
ltoes -19.9834
